<svg viewBox="0 0 117 30" xmlns="http://www.w3.org/2000/svg">
    <g>
        <path d="M0 2.36426H1.81051V19.1795H10.3613V20.806H0V2.36426Z" fill="#FFFFFF" />
        <path d="M13.5891 2.36426H23.9708V3.99073H15.398V10.7074H22.4026V12.3323H15.398V19.1795H24.449V20.806H13.5954L13.5891 2.36426Z" fill="#FFFFFF" />
        <path d="M54.6533 2.36572H58.0038V14.2198C58.0038 16.6941 59.6145 18.1019 62.081 18.1019C64.5474 18.1019 66.1849 16.6941 66.1849 14.193V2.36572H69.5353V14.2198C69.5353 18.3614 66.5467 21.1755 62.1077 21.1755C57.6404 21.1755 54.6533 18.3614 54.6533 14.2198V2.36572Z" fill="#FFFFFF" />
        <path d="M72.7253 2.36572H83.7646V5.249H76.0805V10.0875H82.2891V12.9708H76.0805V17.9304H84.1846V20.8137H72.7253V2.36572Z" fill="#FFFFFF" />
        <path d="M88.199 16.1215C88.199 16.1215 90.1982 18.0752 92.7952 18.0752C94.1983 18.0752 95.4693 17.3453 95.4693 15.8353C95.4693 12.532 86.7675 13.0998 86.7675 7.41978C86.7675 4.34617 89.418 2.05432 92.9494 2.05432C96.5861 2.05432 98.4548 4.03314 98.4548 4.03314L96.9998 6.76856C96.9998 6.76856 95.2334 5.15311 92.9226 5.15311C91.3638 5.15311 90.1432 6.06544 90.1432 7.36787C90.1432 10.6507 98.8182 9.84376 98.8182 15.7566C98.8182 18.7012 96.5845 21.1756 92.7402 21.1756C88.6362 21.1756 86.3774 18.6478 86.3774 18.6478L88.199 16.1215Z" fill="#FFFFFF" />
        <path d="M107.213 5.42833H101.16V2.36572H116.612V5.42833H110.564V20.8058H107.213V5.42833Z" fill="#FFFFFF" />
        <path d="M55.6489 21.5704C54.1876 22.7124 52.8175 23.6153 50.6437 23.8151C49.096 23.9349 47.5392 23.801 46.0348 23.4187C54.9788 17.284 52.6413 0.240723 38.8226 0.00634766C23.4829 0.269036 21.7526 21.0356 34.4576 24.8375C33.3424 25.7546 32.2554 26.7251 31.4689 28.1235L34.4765 30.0111C38.4561 24.0825 44.2809 26.9611 48.594 27.3055C53.0377 27.5226 56.4936 26.4844 58.8452 23.4328L55.6489 21.5704ZM38.8179 21.8473C26.89 21.6428 26.8915 3.90106 38.8179 3.69972C50.7506 3.89635 50.7475 21.6381 38.8226 21.841L38.8179 21.8473Z" fill="#FFFFFF" />
    </g>
</svg>
